#!OML:ASF F:\VICON\USERDATA\INSTALL\Justin_Nancy\Justin_Nancy.ASF
:FULLY-SPECIFIED
:DEGREES
127
root 3.30968 16.95 2.91209 6.28241 -45.9569 -3.08052
lowerback 8.12463 2.5567 3.37775
upperback -0.384737 3.85655 3.00347
thorax -4.94415 1.84566 0.759978
lowerneck -15.1223 -4.3586 -10.4237
upperneck 21.3214 -5.04442 6.32597
head 9.67822 -2.53128 3.28552
rclavicle -3.94588e-014 1.59028e-015
rhumerus -28.8063 0.0528752 -84.1566
rradius 50.7449
rwrist 3.90959
rhand -15.781 11.3117
rfingers 7.12502
rthumb 10.4114 -18.4106
lclavicle -3.94588e-014 1.59028e-015
lhumerus -38.4588 24.056 76.7926
lradius 21.5181
lwrist -15.0247
lhand -14.3336 24.8509
lfingers 7.12502
lthumb 11.8075 54.4981
rfemur 21.4668 6.4852 33.1065
rtibia 7.3196
rfoot -8.8001 5.25225
rtoes 2.25764
lfemur -37.3714 -5.15938 -9.52499
ltibia 24.6008
lfoot -11.9543 8.72148
ltoes -9.1941
128
root 3.16953 16.9322 3.14067 6.37544 -46.2832 -3.48515
lowerback 8.17398 2.55136 3.55249
upperback -0.505554 3.87679 3.04267
thorax -5.09007 1.84823 0.696179
lowerneck -14.8331 -4.38959 -10.7301
upperneck 21.7185 -5.15816 6.68806
head 9.79329 -2.58299 3.45848
rclavicle 6.16232e-014 -2.70347e-014
rhumerus -29.2482 -0.576112 -84.1239
rradius 49.8063
rwrist 4.56463
rhand -15.3715 11.6755
rfingers 7.12502
rthumb 10.8065 -18.0265
lclavicle 6.16232e-014 -2.70347e-014
lhumerus -38.9793 23.9903 76.5471
lradius 21.6287
lwrist -15.3614
lhand -14.0975 24.9699
lfingers 7.12502
lthumb 12.0351 54.6039
rfemur 20.4459 6.50225 33.0416
rtibia 11.0693
rfoot -8.55726 5.99843
rtoes 1.12085
lfemur -36.7463 -5.21438 -9.65906
ltibia 25.1801
lfoot -12.1781 7.4116
ltoes -9.40683
129
root 3.02116 16.9223 3.38499 6.4795 -46.7499 -3.65909
lowerback 7.81024 2.72648 3.57748
upperback -0.493955 4.08864 2.99159
thorax -4.86482 1.95599 0.62242
lowerneck -15.0602 -4.5248 -10.6164
upperneck 22.1509 -5.40922 6.81067
head 10.0142 -2.67816 3.45232
rclavicle 5.94366e-014 3.18055e-015
rhumerus -29.6789 -1.23598 -83.9256
rradius 49.1713
rwrist 4.51776
rhand -15.371 11.5054
rfingers 7.12502
rthumb 10.8069 -18.1966
lclavicle 5.94366e-014 3.18055e-015
lhumerus -38.8941 23.3693 76.7572
lradius 21.6375
lwrist -15.3279
lhand -13.6449 24.9894
lfingers 7.12502
lthumb 12.4715 54.5972
rfemur 19.4851 6.48891 32.6722
rtibia 14.3585
rfoot -7.60692 6.83866
rtoes 0.276877
lfemur -36.0334 -5.24453 -9.96968
ltibia 25.5598
lfoot -12.0486 6.25314
ltoes -9.86701
130
root 2.8725 16.9341 3.63625 6.60805 -47.3521 -3.81626
lowerback 7.39823 2.87676 3.62558
upperback -0.529992 4.27083 2.98617
thorax -4.66413 2.04852 0.590471
lowerneck -14.9595 -4.52648 -10.5911
upperneck 22.3738 -5.44351 6.80209
head 10.077 -2.69895 3.4446
rclavicle -2.74323e-014 -3.02153e-014
rhumerus -29.9043 -1.84593 -83.8898
rradius 48.2347
rwrist 4.35072
rhand -15.8792 10.8537
rfingers 7.12502
rthumb 10.3166 -18.8733
lclavicle -2.74323e-014 -3.02153e-014
lhumerus -39.0472 23.3794 76.6121
lradius 21.6083
lwrist -15.6586
lhand -12.8952 25.6965
lfingers 7.12502
lthumb 13.1942 55.259
rfemur 18.5181 6.564 32.1295
rtibia 17.5232
rfoot -5.91348 7.82791
rtoes 2.57555
lfemur -35.2701 -6.14463 -9.85871
ltibia 25.8218
lfoot -11.1509 5.66093
ltoes -14.3896
131
root 2.72031 16.9635 3.90591 6.55887 -47.9885 -3.7221
lowerback 6.99362 2.95927 3.71352
upperback -0.710958 4.37057 2.88601
thorax -4.60924 2.09531 0.444787
lowerneck -14.6532 -4.40892 -10.7737
upperneck 22.8399 -5.32535 6.90411
head 10.1822 -2.66426 3.53925
rclavicle 9.21367e-014 -4.45278e-014
rhumerus -30.3573 -2.33825 -83.8613
rradius 47.1082
rwrist 4.43727
rhand -15.9904 10.7281
rfingers 7.12502
rthumb 10.2095 -19.0042
lclavicle 9.21367e-014 -4.45278e-014
lhumerus -39.5745 23.4688 76.1967
lradius 21.6057
lwrist -15.7317
lhand -12.5979 26.2508
lfingers 7.12502
lthumb 13.4808 55.7945
rfemur 17.3621 6.37771 31.1491
rtibia 20.8619
rfoot -3.60679 9.21349
rtoes 4.85295
lfemur -34.5953 -8.04646 -9.4764
ltibia 26.0842
lfoot -7.82955 4.82864
ltoes -11.9767
132
root 2.57349 16.9881 4.16871 6.35479 -48.4734 -3.33351
lowerback 6.72408 3.04129 3.55964
upperback -0.930275 4.45623 2.68157
thorax -4.67956 2.13822 0.318573
lowerneck -14.5762 -4.35956 -10.4953
upperneck 23.2106 -5.33503 6.79608
head 10.2896 -2.66525 3.45878
rclavicle -2.23633e-014 -7.95139e-015
rhumerus -31.1309 -2.89371 -83.6663
rradius 46.3123
rwrist 4.40727
rhand -15.5602 10.747
rfingers 7.12502
rthumb 10.6244 -18.9644
lclavicle -2.23633e-014 -7.95139e-015
lhumerus -39.9878 23.4753 75.7371
lradius 21.6114
lwrist -15.6597
lhand -12.9253 26.2519
lfingers 7.12502
lthumb 13.1652 55.8163
rfemur 15.8342 6.17396 30.0473
rtibia 24.4137
rfoot -0.568106 10.4791
rtoes 4.47537
lfemur -34.1843 -9.24608 -9.56158
ltibia 26.489
lfoot -5.6559 4.92988
ltoes -10.9114
133
root 2.43488 17.0083 4.41083 5.88698 -48.8167 -2.49627
lowerback 6.60736 3.08488 3.04919
upperback -1.16323 4.46761 2.38127
thorax -4.87029 2.15168 0.288882
lowerneck -14.4954 -4.41031 -10.3215
upperneck 23.3833 -5.50142 6.89458
head 10.3496 -2.7209 3.44538
rclavicle 7.37988e-014 2.14687e-014
rhumerus -31.5282 -3.8544 -83.5357
rradius 45.1275
rwrist 4.69048
rhand -15.4879 10.8527
rfingers 7.12502
rthumb 10.6942 -18.8551
lclavicle 7.37988e-014 2.14687e-014
lhumerus -40.3103 23.3692 75.3566
lradius 21.7121
lwrist -15.1512
lhand -13.3512 25.9294
lfingers 7.12502
lthumb 12.7546 55.5199
rfemur 13.9461 6.06312 28.7246
rtibia 28.284
rfoot 3.79103 11.4842
rtoes 5.70117
lfemur -33.8256 -8.78007 -10.6807
ltibia 27.0135
lfoot -4.45241 4.25883
ltoes -8.47805
134
root 2.28996 17.0307 4.63658 5.15261 -49.1437 -1.32035
lowerback 6.46636 3.11611 2.12417
upperback -1.33197 4.42477 2.08732
thorax -5.01229 2.15318 0.50443
lowerneck -14.7677 -4.43642 -10.1787
upperneck 23.7267 -5.58743 6.95932
head 10.5325 -2.73975 3.43503
rclavicle -2.85256e-014 -2.3059e-014
rhumerus -31.7132 -4.95686 -83.3555
rradius 43.6945
rwrist 5.45405
rhand -15.5746 10.6711
rfingers 7.12502
rthumb 10.6106 -19.041
lclavicle -2.85256e-014 -2.3059e-014
lhumerus -40.541 23.5261 74.9334
lradius 21.7218
lwrist -14.8829
lhand -13.8054 26.1166
lfingers 7.12502
lthumb 12.3168 55.7338
rfemur 11.7479 6.12314 27.2438
rtibia 32.561
rfoot 9.25063 12.1867
rtoes 9.22898
lfemur -33.375 -7.97583 -12.1692
ltibia 27.553
lfoot -3.72693 2.41437
ltoes -6.78229
135
root 2.14191 17.0438 4.84129 4.23083 -49.3004 -0.130617
lowerback 6.52326 3.00621 0.986557
upperback -1.40665 4.18335 1.91309
thorax -5.19067 2.06577 0.975588
lowerneck -15.1642 -4.32386 -9.9818
upperneck 23.9232 -5.43287 6.89547
head 10.6572 -2.6528 3.39965
rclavicle -5.81445e-015 -2.62396e-014
rhumerus -32.0695 -5.38837 -83.1514
rradius 42.6626
rwrist 5.65031
rhand -15.7285 10.0636
rfingers 7.12502
rthumb 10.4621 -19.6561
lclavicle -5.81445e-015 -2.62396e-014
lhumerus -40.7542 23.9209 74.488
lradius 21.7583
lwrist -14.4056
lhand -14.3798 26.4732
lfingers 7.12502
lthumb 11.7629 56.1229
rfemur 9.42876 6.21661 26.0516
rtibia 36.929
rfoot 14.3021 12.7469
rtoes 8.87125
lfemur -32.784 -7.22381 -13.5857
ltibia 28.0971
lfoot -3.20472 0.332933
ltoes -6.48399
